<svg xmlns="http://www.w3.org/2000/svg" id="Layer_1" fill="white" data-name="Layer 1"
  viewBox="0 0 461 461">
  <style>
    path {
    fill: #000;
    }
    @media (prefers-color-scheme: dark) {
    path { fill: #ffffff; }
    }
</style>
  <path
    d="M456,152.39C455,121.63,466,69.52,420,68H113.08A36.08,36.08,0,0,0,77,104.08V492.92A36.08,36.08,0,0,0,113.08,529H501.92A36.08,36.08,0,0,0,538,492.92V200.08C532.28,136.91,457.82,183.1,456,152.39Zm42,315.08A21.71,21.71,0,0,1,476.11,489H138.89A21.71,21.71,0,0,1,117,467.47V224.53A21.71,21.71,0,0,1,138.89,203H476.11A21.71,21.71,0,0,1,498,224.53Z"
    transform="translate(-77 -68)" />
</svg>
